<mxfile host="app.diagrams.net" modified="2023-11-10T13:56:12.865Z" agent="Mozilla/5.0 (Macintosh; Intel Mac OS X 10_15_7) AppleWebKit/537.36 (KHTML, like Gecko) Chrome/117.0.0.0 Safari/537.36" etag="_Y-s_Dy5pjXep00hxHoT" version="22.1.0" type="github">
  <diagram id="R2lEEEUBdFMjLlhIrx00" name="Page-1">
    <mxGraphModel dx="1630" dy="788" grid="1" gridSize="10" guides="1" tooltips="1" connect="1" arrows="1" fold="1" page="0" pageScale="1" pageWidth="850" pageHeight="1100" background="#000000" math="0" shadow="0" extFonts="Permanent Marker^https://fonts.googleapis.com/css?family=Permanent+Marker">
      <root>
        <mxCell id="0" />
        <mxCell id="1" parent="0" />
        <mxCell id="5Poz6dqx_JnwCEKSfS_G-30" value="study_times" style="shape=table;startSize=30;container=1;collapsible=1;childLayout=tableLayout;fixedRows=1;rowLines=0;fontStyle=1;align=center;resizeLast=1;html=1;rounded=0;labelBackgroundColor=none;fillColor=#004C99;strokeColor=#EEEEEE;fontColor=#FFFFFF;" vertex="1" parent="1">
          <mxGeometry x="570" y="24" width="180" height="180" as="geometry" />
        </mxCell>
        <mxCell id="5Poz6dqx_JnwCEKSfS_G-31" value="" style="shape=tableRow;horizontal=0;startSize=0;swimlaneHead=0;swimlaneBody=0;fillColor=none;collapsible=0;dropTarget=0;points=[[0,0.5],[1,0.5]];portConstraint=eastwest;top=0;left=0;right=0;bottom=1;rounded=1;labelBackgroundColor=none;strokeColor=#EEEEEE;fontColor=#FFFFFF;" vertex="1" parent="5Poz6dqx_JnwCEKSfS_G-30">
          <mxGeometry y="30" width="180" height="30" as="geometry" />
        </mxCell>
        <mxCell id="5Poz6dqx_JnwCEKSfS_G-32" value="PK" style="shape=partialRectangle;connectable=0;fillColor=none;top=0;left=0;bottom=0;right=0;fontStyle=1;overflow=hidden;whiteSpace=wrap;html=1;rounded=1;labelBackgroundColor=none;strokeColor=#EEEEEE;fontColor=#FFFFFF;" vertex="1" parent="5Poz6dqx_JnwCEKSfS_G-31">
          <mxGeometry width="30" height="30" as="geometry">
            <mxRectangle width="30" height="30" as="alternateBounds" />
          </mxGeometry>
        </mxCell>
        <mxCell id="5Poz6dqx_JnwCEKSfS_G-33" value="UniqueID" style="shape=partialRectangle;connectable=0;fillColor=none;top=0;left=0;bottom=0;right=0;align=left;spacingLeft=6;fontStyle=5;overflow=hidden;whiteSpace=wrap;html=1;rounded=1;labelBackgroundColor=none;strokeColor=#EEEEEE;fontColor=#FFFFFF;" vertex="1" parent="5Poz6dqx_JnwCEKSfS_G-31">
          <mxGeometry x="30" width="150" height="30" as="geometry">
            <mxRectangle width="150" height="30" as="alternateBounds" />
          </mxGeometry>
        </mxCell>
        <mxCell id="5Poz6dqx_JnwCEKSfS_G-34" value="" style="shape=tableRow;horizontal=0;startSize=0;swimlaneHead=0;swimlaneBody=0;fillColor=none;collapsible=0;dropTarget=0;points=[[0,0.5],[1,0.5]];portConstraint=eastwest;top=0;left=0;right=0;bottom=0;rounded=1;labelBackgroundColor=none;strokeColor=#EEEEEE;fontColor=#FFFFFF;" vertex="1" parent="5Poz6dqx_JnwCEKSfS_G-30">
          <mxGeometry y="60" width="180" height="30" as="geometry" />
        </mxCell>
        <mxCell id="5Poz6dqx_JnwCEKSfS_G-35" value="FK" style="shape=partialRectangle;connectable=0;fillColor=none;top=0;left=0;bottom=0;right=0;editable=1;overflow=hidden;whiteSpace=wrap;html=1;rounded=1;labelBackgroundColor=none;strokeColor=#EEEEEE;fontColor=#FFFFFF;" vertex="1" parent="5Poz6dqx_JnwCEKSfS_G-34">
          <mxGeometry width="30" height="30" as="geometry">
            <mxRectangle width="30" height="30" as="alternateBounds" />
          </mxGeometry>
        </mxCell>
        <mxCell id="5Poz6dqx_JnwCEKSfS_G-36" value="user_id" style="shape=partialRectangle;connectable=0;fillColor=none;top=0;left=0;bottom=0;right=0;align=left;spacingLeft=6;overflow=hidden;whiteSpace=wrap;html=1;rounded=1;labelBackgroundColor=none;strokeColor=#EEEEEE;fontColor=#FFFFFF;" vertex="1" parent="5Poz6dqx_JnwCEKSfS_G-34">
          <mxGeometry x="30" width="150" height="30" as="geometry">
            <mxRectangle width="150" height="30" as="alternateBounds" />
          </mxGeometry>
        </mxCell>
        <mxCell id="5Poz6dqx_JnwCEKSfS_G-185" value="" style="shape=tableRow;horizontal=0;startSize=0;swimlaneHead=0;swimlaneBody=0;fillColor=none;collapsible=0;dropTarget=0;points=[[0,0.5],[1,0.5]];portConstraint=eastwest;top=0;left=0;right=0;bottom=0;strokeColor=#EEEEEE;fontColor=#FFFFFF;" vertex="1" parent="5Poz6dqx_JnwCEKSfS_G-30">
          <mxGeometry y="90" width="180" height="30" as="geometry" />
        </mxCell>
        <mxCell id="5Poz6dqx_JnwCEKSfS_G-186" value="" style="shape=partialRectangle;connectable=0;fillColor=none;top=0;left=0;bottom=0;right=0;editable=1;overflow=hidden;strokeColor=#EEEEEE;fontColor=#FFFFFF;" vertex="1" parent="5Poz6dqx_JnwCEKSfS_G-185">
          <mxGeometry width="30" height="30" as="geometry">
            <mxRectangle width="30" height="30" as="alternateBounds" />
          </mxGeometry>
        </mxCell>
        <mxCell id="5Poz6dqx_JnwCEKSfS_G-187" value="start_time (datetime)" style="shape=partialRectangle;connectable=0;fillColor=none;top=0;left=0;bottom=0;right=0;align=left;spacingLeft=6;overflow=hidden;strokeColor=#EEEEEE;fontColor=#FFFFFF;" vertex="1" parent="5Poz6dqx_JnwCEKSfS_G-185">
          <mxGeometry x="30" width="150" height="30" as="geometry">
            <mxRectangle width="150" height="30" as="alternateBounds" />
          </mxGeometry>
        </mxCell>
        <mxCell id="5Poz6dqx_JnwCEKSfS_G-189" value="" style="shape=tableRow;horizontal=0;startSize=0;swimlaneHead=0;swimlaneBody=0;fillColor=none;collapsible=0;dropTarget=0;points=[[0,0.5],[1,0.5]];portConstraint=eastwest;top=0;left=0;right=0;bottom=0;strokeColor=#EEEEEE;fontColor=#FFFFFF;" vertex="1" parent="5Poz6dqx_JnwCEKSfS_G-30">
          <mxGeometry y="120" width="180" height="30" as="geometry" />
        </mxCell>
        <mxCell id="5Poz6dqx_JnwCEKSfS_G-190" value="" style="shape=partialRectangle;connectable=0;fillColor=none;top=0;left=0;bottom=0;right=0;editable=1;overflow=hidden;strokeColor=#EEEEEE;fontColor=#FFFFFF;" vertex="1" parent="5Poz6dqx_JnwCEKSfS_G-189">
          <mxGeometry width="30" height="30" as="geometry">
            <mxRectangle width="30" height="30" as="alternateBounds" />
          </mxGeometry>
        </mxCell>
        <mxCell id="5Poz6dqx_JnwCEKSfS_G-191" value="end_time (datetime)" style="shape=partialRectangle;connectable=0;fillColor=none;top=0;left=0;bottom=0;right=0;align=left;spacingLeft=6;overflow=hidden;strokeColor=#EEEEEE;fontColor=#FFFFFF;" vertex="1" parent="5Poz6dqx_JnwCEKSfS_G-189">
          <mxGeometry x="30" width="150" height="30" as="geometry">
            <mxRectangle width="150" height="30" as="alternateBounds" />
          </mxGeometry>
        </mxCell>
        <mxCell id="5Poz6dqx_JnwCEKSfS_G-40" value="" style="shape=tableRow;horizontal=0;startSize=0;swimlaneHead=0;swimlaneBody=0;fillColor=none;collapsible=0;dropTarget=0;points=[[0,0.5],[1,0.5]];portConstraint=eastwest;top=0;left=0;right=0;bottom=0;rounded=1;labelBackgroundColor=none;strokeColor=#EEEEEE;fontColor=#FFFFFF;" vertex="1" parent="5Poz6dqx_JnwCEKSfS_G-30">
          <mxGeometry y="150" width="180" height="30" as="geometry" />
        </mxCell>
        <mxCell id="5Poz6dqx_JnwCEKSfS_G-41" value="" style="shape=partialRectangle;connectable=0;fillColor=none;top=0;left=0;bottom=0;right=0;editable=1;overflow=hidden;whiteSpace=wrap;html=1;rounded=1;labelBackgroundColor=none;strokeColor=#EEEEEE;fontColor=#FFFFFF;" vertex="1" parent="5Poz6dqx_JnwCEKSfS_G-40">
          <mxGeometry width="30" height="30" as="geometry">
            <mxRectangle width="30" height="30" as="alternateBounds" />
          </mxGeometry>
        </mxCell>
        <mxCell id="5Poz6dqx_JnwCEKSfS_G-42" value="total_time (string)" style="shape=partialRectangle;connectable=0;fillColor=none;top=0;left=0;bottom=0;right=0;align=left;spacingLeft=6;overflow=hidden;whiteSpace=wrap;html=1;rounded=1;labelBackgroundColor=none;strokeColor=#EEEEEE;fontColor=#FFFFFF;" vertex="1" parent="5Poz6dqx_JnwCEKSfS_G-40">
          <mxGeometry x="30" width="150" height="30" as="geometry">
            <mxRectangle width="150" height="30" as="alternateBounds" />
          </mxGeometry>
        </mxCell>
        <mxCell id="5Poz6dqx_JnwCEKSfS_G-56" value="room" style="shape=table;startSize=30;container=1;collapsible=1;childLayout=tableLayout;fixedRows=1;rowLines=0;fontStyle=1;align=center;resizeLast=1;html=1;rounded=0;labelBackgroundColor=none;fillColor=#004C99;strokeColor=#EEEEEE;fontColor=#FFFFFF;" vertex="1" parent="1">
          <mxGeometry x="-30" y="680" width="180" height="90" as="geometry" />
        </mxCell>
        <mxCell id="5Poz6dqx_JnwCEKSfS_G-57" value="" style="shape=tableRow;horizontal=0;startSize=0;swimlaneHead=0;swimlaneBody=0;fillColor=none;collapsible=0;dropTarget=0;points=[[0,0.5],[1,0.5]];portConstraint=eastwest;top=0;left=0;right=0;bottom=1;rounded=1;labelBackgroundColor=none;strokeColor=#EEEEEE;fontColor=#FFFFFF;" vertex="1" parent="5Poz6dqx_JnwCEKSfS_G-56">
          <mxGeometry y="30" width="180" height="30" as="geometry" />
        </mxCell>
        <mxCell id="5Poz6dqx_JnwCEKSfS_G-58" value="PK" style="shape=partialRectangle;connectable=0;fillColor=none;top=0;left=0;bottom=0;right=0;fontStyle=1;overflow=hidden;whiteSpace=wrap;html=1;rounded=1;labelBackgroundColor=none;strokeColor=#EEEEEE;fontColor=#FFFFFF;" vertex="1" parent="5Poz6dqx_JnwCEKSfS_G-57">
          <mxGeometry width="30" height="30" as="geometry">
            <mxRectangle width="30" height="30" as="alternateBounds" />
          </mxGeometry>
        </mxCell>
        <mxCell id="5Poz6dqx_JnwCEKSfS_G-59" value="UniqueID" style="shape=partialRectangle;connectable=0;fillColor=none;top=0;left=0;bottom=0;right=0;align=left;spacingLeft=6;fontStyle=5;overflow=hidden;whiteSpace=wrap;html=1;rounded=1;labelBackgroundColor=none;strokeColor=#EEEEEE;fontColor=#FFFFFF;" vertex="1" parent="5Poz6dqx_JnwCEKSfS_G-57">
          <mxGeometry x="30" width="150" height="30" as="geometry">
            <mxRectangle width="150" height="30" as="alternateBounds" />
          </mxGeometry>
        </mxCell>
        <mxCell id="5Poz6dqx_JnwCEKSfS_G-60" value="" style="shape=tableRow;horizontal=0;startSize=0;swimlaneHead=0;swimlaneBody=0;fillColor=none;collapsible=0;dropTarget=0;points=[[0,0.5],[1,0.5]];portConstraint=eastwest;top=0;left=0;right=0;bottom=0;rounded=1;labelBackgroundColor=none;strokeColor=#EEEEEE;fontColor=#FFFFFF;" vertex="1" parent="5Poz6dqx_JnwCEKSfS_G-56">
          <mxGeometry y="60" width="180" height="30" as="geometry" />
        </mxCell>
        <mxCell id="5Poz6dqx_JnwCEKSfS_G-61" value="FK" style="shape=partialRectangle;connectable=0;fillColor=none;top=0;left=0;bottom=0;right=0;editable=1;overflow=hidden;whiteSpace=wrap;html=1;rounded=1;labelBackgroundColor=none;strokeColor=#EEEEEE;fontColor=#FFFFFF;" vertex="1" parent="5Poz6dqx_JnwCEKSfS_G-60">
          <mxGeometry width="30" height="30" as="geometry">
            <mxRectangle width="30" height="30" as="alternateBounds" />
          </mxGeometry>
        </mxCell>
        <mxCell id="5Poz6dqx_JnwCEKSfS_G-62" value="team_id" style="shape=partialRectangle;connectable=0;fillColor=none;top=0;left=0;bottom=0;right=0;align=left;spacingLeft=6;overflow=hidden;whiteSpace=wrap;html=1;rounded=1;labelBackgroundColor=none;strokeColor=#EEEEEE;fontColor=#FFFFFF;" vertex="1" parent="5Poz6dqx_JnwCEKSfS_G-60">
          <mxGeometry x="30" width="150" height="30" as="geometry">
            <mxRectangle width="150" height="30" as="alternateBounds" />
          </mxGeometry>
        </mxCell>
        <mxCell id="5Poz6dqx_JnwCEKSfS_G-69" value="team_tags" style="shape=table;startSize=30;container=1;collapsible=1;childLayout=tableLayout;fixedRows=1;rowLines=0;fontStyle=1;align=center;resizeLast=1;html=1;rounded=0;labelBackgroundColor=none;fillColor=#004C99;strokeColor=#EEEEEE;fontColor=#FFFFFF;" vertex="1" parent="1">
          <mxGeometry x="-140" y="155" width="180" height="120" as="geometry" />
        </mxCell>
        <mxCell id="5Poz6dqx_JnwCEKSfS_G-70" value="" style="shape=tableRow;horizontal=0;startSize=0;swimlaneHead=0;swimlaneBody=0;fillColor=none;collapsible=0;dropTarget=0;points=[[0,0.5],[1,0.5]];portConstraint=eastwest;top=0;left=0;right=0;bottom=1;rounded=1;labelBackgroundColor=none;strokeColor=#EEEEEE;fontColor=#FFFFFF;" vertex="1" parent="5Poz6dqx_JnwCEKSfS_G-69">
          <mxGeometry y="30" width="180" height="30" as="geometry" />
        </mxCell>
        <mxCell id="5Poz6dqx_JnwCEKSfS_G-71" value="PK" style="shape=partialRectangle;connectable=0;fillColor=none;top=0;left=0;bottom=0;right=0;fontStyle=1;overflow=hidden;whiteSpace=wrap;html=1;rounded=1;labelBackgroundColor=none;strokeColor=#EEEEEE;fontColor=#FFFFFF;" vertex="1" parent="5Poz6dqx_JnwCEKSfS_G-70">
          <mxGeometry width="30" height="30" as="geometry">
            <mxRectangle width="30" height="30" as="alternateBounds" />
          </mxGeometry>
        </mxCell>
        <mxCell id="5Poz6dqx_JnwCEKSfS_G-72" value="UniqueID" style="shape=partialRectangle;connectable=0;fillColor=none;top=0;left=0;bottom=0;right=0;align=left;spacingLeft=6;fontStyle=5;overflow=hidden;whiteSpace=wrap;html=1;rounded=1;labelBackgroundColor=none;strokeColor=#EEEEEE;fontColor=#FFFFFF;" vertex="1" parent="5Poz6dqx_JnwCEKSfS_G-70">
          <mxGeometry x="30" width="150" height="30" as="geometry">
            <mxRectangle width="150" height="30" as="alternateBounds" />
          </mxGeometry>
        </mxCell>
        <mxCell id="5Poz6dqx_JnwCEKSfS_G-73" value="" style="shape=tableRow;horizontal=0;startSize=0;swimlaneHead=0;swimlaneBody=0;fillColor=none;collapsible=0;dropTarget=0;points=[[0,0.5],[1,0.5]];portConstraint=eastwest;top=0;left=0;right=0;bottom=0;rounded=1;labelBackgroundColor=none;strokeColor=#EEEEEE;fontColor=#FFFFFF;" vertex="1" parent="5Poz6dqx_JnwCEKSfS_G-69">
          <mxGeometry y="60" width="180" height="30" as="geometry" />
        </mxCell>
        <mxCell id="5Poz6dqx_JnwCEKSfS_G-74" value="FK" style="shape=partialRectangle;connectable=0;fillColor=none;top=0;left=0;bottom=0;right=0;editable=1;overflow=hidden;whiteSpace=wrap;html=1;rounded=1;labelBackgroundColor=none;strokeColor=#EEEEEE;fontColor=#FFFFFF;" vertex="1" parent="5Poz6dqx_JnwCEKSfS_G-73">
          <mxGeometry width="30" height="30" as="geometry">
            <mxRectangle width="30" height="30" as="alternateBounds" />
          </mxGeometry>
        </mxCell>
        <mxCell id="5Poz6dqx_JnwCEKSfS_G-75" value="tag_id" style="shape=partialRectangle;connectable=0;fillColor=none;top=0;left=0;bottom=0;right=0;align=left;spacingLeft=6;overflow=hidden;whiteSpace=wrap;html=1;rounded=1;labelBackgroundColor=none;strokeColor=#EEEEEE;fontColor=#FFFFFF;" vertex="1" parent="5Poz6dqx_JnwCEKSfS_G-73">
          <mxGeometry x="30" width="150" height="30" as="geometry">
            <mxRectangle width="150" height="30" as="alternateBounds" />
          </mxGeometry>
        </mxCell>
        <mxCell id="5Poz6dqx_JnwCEKSfS_G-76" value="" style="shape=tableRow;horizontal=0;startSize=0;swimlaneHead=0;swimlaneBody=0;fillColor=none;collapsible=0;dropTarget=0;points=[[0,0.5],[1,0.5]];portConstraint=eastwest;top=0;left=0;right=0;bottom=0;rounded=1;labelBackgroundColor=none;strokeColor=#EEEEEE;fontColor=#FFFFFF;" vertex="1" parent="5Poz6dqx_JnwCEKSfS_G-69">
          <mxGeometry y="90" width="180" height="30" as="geometry" />
        </mxCell>
        <mxCell id="5Poz6dqx_JnwCEKSfS_G-77" value="FK" style="shape=partialRectangle;connectable=0;fillColor=none;top=0;left=0;bottom=0;right=0;editable=1;overflow=hidden;whiteSpace=wrap;html=1;rounded=1;labelBackgroundColor=none;strokeColor=#EEEEEE;fontColor=#FFFFFF;" vertex="1" parent="5Poz6dqx_JnwCEKSfS_G-76">
          <mxGeometry width="30" height="30" as="geometry">
            <mxRectangle width="30" height="30" as="alternateBounds" />
          </mxGeometry>
        </mxCell>
        <mxCell id="5Poz6dqx_JnwCEKSfS_G-78" value="team_id" style="shape=partialRectangle;connectable=0;fillColor=none;top=0;left=0;bottom=0;right=0;align=left;spacingLeft=6;overflow=hidden;whiteSpace=wrap;html=1;rounded=1;labelBackgroundColor=none;strokeColor=#EEEEEE;fontColor=#FFFFFF;" vertex="1" parent="5Poz6dqx_JnwCEKSfS_G-76">
          <mxGeometry x="30" width="150" height="30" as="geometry">
            <mxRectangle width="150" height="30" as="alternateBounds" />
          </mxGeometry>
        </mxCell>
        <mxCell id="5Poz6dqx_JnwCEKSfS_G-17" value="users" style="shape=table;startSize=30;container=1;collapsible=1;childLayout=tableLayout;fixedRows=1;rowLines=0;fontStyle=1;align=center;resizeLast=1;html=1;rounded=0;labelBackgroundColor=none;fillColor=#004C99;strokeColor=#EEEEEE;fontColor=#FFFFFF;arcSize=17;" vertex="1" parent="1">
          <mxGeometry x="243" y="233" width="180" height="210" as="geometry" />
        </mxCell>
        <mxCell id="5Poz6dqx_JnwCEKSfS_G-18" value="" style="shape=tableRow;horizontal=0;startSize=0;swimlaneHead=0;swimlaneBody=0;fillColor=none;collapsible=0;dropTarget=0;points=[[0,0.5],[1,0.5]];portConstraint=eastwest;top=0;left=0;right=0;bottom=1;rounded=1;labelBackgroundColor=none;strokeColor=#EEEEEE;fontColor=#FFFFFF;" vertex="1" parent="5Poz6dqx_JnwCEKSfS_G-17">
          <mxGeometry y="30" width="180" height="30" as="geometry" />
        </mxCell>
        <mxCell id="5Poz6dqx_JnwCEKSfS_G-19" value="PK" style="shape=partialRectangle;connectable=0;fillColor=none;top=0;left=0;bottom=0;right=0;fontStyle=1;overflow=hidden;whiteSpace=wrap;html=1;rounded=1;labelBackgroundColor=none;strokeColor=#EEEEEE;fontColor=#FFFFFF;" vertex="1" parent="5Poz6dqx_JnwCEKSfS_G-18">
          <mxGeometry width="30" height="30" as="geometry">
            <mxRectangle width="30" height="30" as="alternateBounds" />
          </mxGeometry>
        </mxCell>
        <mxCell id="5Poz6dqx_JnwCEKSfS_G-20" value="UniqueID" style="shape=partialRectangle;connectable=0;fillColor=none;top=0;left=0;bottom=0;right=0;align=left;spacingLeft=6;fontStyle=5;overflow=hidden;whiteSpace=wrap;html=1;rounded=1;labelBackgroundColor=none;strokeColor=#EEEEEE;fontColor=#FFFFFF;" vertex="1" parent="5Poz6dqx_JnwCEKSfS_G-18">
          <mxGeometry x="30" width="150" height="30" as="geometry">
            <mxRectangle width="150" height="30" as="alternateBounds" />
          </mxGeometry>
        </mxCell>
        <mxCell id="5Poz6dqx_JnwCEKSfS_G-230" value="" style="shape=tableRow;horizontal=0;startSize=0;swimlaneHead=0;swimlaneBody=0;fillColor=none;collapsible=0;dropTarget=0;points=[[0,0.5],[1,0.5]];portConstraint=eastwest;top=0;left=0;right=0;bottom=0;rounded=1;labelBackgroundColor=none;strokeColor=#EEEEEE;fontColor=#FFFFFF;" vertex="1" parent="5Poz6dqx_JnwCEKSfS_G-17">
          <mxGeometry y="60" width="180" height="30" as="geometry" />
        </mxCell>
        <mxCell id="5Poz6dqx_JnwCEKSfS_G-231" value="" style="shape=partialRectangle;connectable=0;fillColor=none;top=0;left=0;bottom=0;right=0;editable=1;overflow=hidden;whiteSpace=wrap;html=1;rounded=1;labelBackgroundColor=none;strokeColor=#EEEEEE;fontColor=#FFFFFF;" vertex="1" parent="5Poz6dqx_JnwCEKSfS_G-230">
          <mxGeometry width="30" height="30" as="geometry">
            <mxRectangle width="30" height="30" as="alternateBounds" />
          </mxGeometry>
        </mxCell>
        <mxCell id="5Poz6dqx_JnwCEKSfS_G-232" value="name" style="shape=partialRectangle;connectable=0;fillColor=none;top=0;left=0;bottom=0;right=0;align=left;spacingLeft=6;overflow=hidden;whiteSpace=wrap;html=1;rounded=1;labelBackgroundColor=none;strokeColor=#EEEEEE;fontColor=#FFFFFF;" vertex="1" parent="5Poz6dqx_JnwCEKSfS_G-230">
          <mxGeometry x="30" width="150" height="30" as="geometry">
            <mxRectangle width="150" height="30" as="alternateBounds" />
          </mxGeometry>
        </mxCell>
        <mxCell id="5Poz6dqx_JnwCEKSfS_G-24" value="" style="shape=tableRow;horizontal=0;startSize=0;swimlaneHead=0;swimlaneBody=0;fillColor=none;collapsible=0;dropTarget=0;points=[[0,0.5],[1,0.5]];portConstraint=eastwest;top=0;left=0;right=0;bottom=0;rounded=1;labelBackgroundColor=none;strokeColor=#EEEEEE;fontColor=#FFFFFF;" vertex="1" parent="5Poz6dqx_JnwCEKSfS_G-17">
          <mxGeometry y="90" width="180" height="30" as="geometry" />
        </mxCell>
        <mxCell id="5Poz6dqx_JnwCEKSfS_G-25" value="" style="shape=partialRectangle;connectable=0;fillColor=none;top=0;left=0;bottom=0;right=0;editable=1;overflow=hidden;whiteSpace=wrap;html=1;rounded=1;labelBackgroundColor=none;strokeColor=#EEEEEE;fontColor=#FFFFFF;" vertex="1" parent="5Poz6dqx_JnwCEKSfS_G-24">
          <mxGeometry width="30" height="30" as="geometry">
            <mxRectangle width="30" height="30" as="alternateBounds" />
          </mxGeometry>
        </mxCell>
        <mxCell id="5Poz6dqx_JnwCEKSfS_G-26" value="email (string)" style="shape=partialRectangle;connectable=0;fillColor=none;top=0;left=0;bottom=0;right=0;align=left;spacingLeft=6;overflow=hidden;whiteSpace=wrap;html=1;rounded=1;labelBackgroundColor=none;strokeColor=#EEEEEE;fontColor=#FFFFFF;" vertex="1" parent="5Poz6dqx_JnwCEKSfS_G-24">
          <mxGeometry x="30" width="150" height="30" as="geometry">
            <mxRectangle width="150" height="30" as="alternateBounds" />
          </mxGeometry>
        </mxCell>
        <mxCell id="5Poz6dqx_JnwCEKSfS_G-27" value="" style="shape=tableRow;horizontal=0;startSize=0;swimlaneHead=0;swimlaneBody=0;fillColor=none;collapsible=0;dropTarget=0;points=[[0,0.5],[1,0.5]];portConstraint=eastwest;top=0;left=0;right=0;bottom=0;rounded=1;labelBackgroundColor=none;strokeColor=#EEEEEE;fontColor=#FFFFFF;" vertex="1" parent="5Poz6dqx_JnwCEKSfS_G-17">
          <mxGeometry y="120" width="180" height="30" as="geometry" />
        </mxCell>
        <mxCell id="5Poz6dqx_JnwCEKSfS_G-28" value="" style="shape=partialRectangle;connectable=0;fillColor=none;top=0;left=0;bottom=0;right=0;editable=1;overflow=hidden;whiteSpace=wrap;html=1;rounded=1;labelBackgroundColor=none;strokeColor=#EEEEEE;fontColor=#FFFFFF;" vertex="1" parent="5Poz6dqx_JnwCEKSfS_G-27">
          <mxGeometry width="30" height="30" as="geometry">
            <mxRectangle width="30" height="30" as="alternateBounds" />
          </mxGeometry>
        </mxCell>
        <mxCell id="5Poz6dqx_JnwCEKSfS_G-29" value="avatar (string)" style="shape=partialRectangle;connectable=0;fillColor=none;top=0;left=0;bottom=0;right=0;align=left;spacingLeft=6;overflow=hidden;whiteSpace=wrap;html=1;rounded=1;labelBackgroundColor=none;strokeColor=#EEEEEE;fontColor=#FFFFFF;" vertex="1" parent="5Poz6dqx_JnwCEKSfS_G-27">
          <mxGeometry x="30" width="150" height="30" as="geometry">
            <mxRectangle width="150" height="30" as="alternateBounds" />
          </mxGeometry>
        </mxCell>
        <mxCell id="5Poz6dqx_JnwCEKSfS_G-134" value="" style="shape=tableRow;horizontal=0;startSize=0;swimlaneHead=0;swimlaneBody=0;fillColor=none;collapsible=0;dropTarget=0;points=[[0,0.5],[1,0.5]];portConstraint=eastwest;top=0;left=0;right=0;bottom=0;strokeColor=#EEEEEE;fontColor=#FFFFFF;" vertex="1" parent="5Poz6dqx_JnwCEKSfS_G-17">
          <mxGeometry y="150" width="180" height="30" as="geometry" />
        </mxCell>
        <mxCell id="5Poz6dqx_JnwCEKSfS_G-135" value="" style="shape=partialRectangle;connectable=0;fillColor=none;top=0;left=0;bottom=0;right=0;editable=1;overflow=hidden;strokeColor=#EEEEEE;fontColor=#FFFFFF;" vertex="1" parent="5Poz6dqx_JnwCEKSfS_G-134">
          <mxGeometry width="30" height="30" as="geometry">
            <mxRectangle width="30" height="30" as="alternateBounds" />
          </mxGeometry>
        </mxCell>
        <mxCell id="5Poz6dqx_JnwCEKSfS_G-136" value="status (integer)" style="shape=partialRectangle;connectable=0;fillColor=none;top=0;left=0;bottom=0;right=0;align=left;spacingLeft=6;overflow=hidden;strokeColor=#EEEEEE;fontColor=#FFFFFF;" vertex="1" parent="5Poz6dqx_JnwCEKSfS_G-134">
          <mxGeometry x="30" width="150" height="30" as="geometry">
            <mxRectangle width="150" height="30" as="alternateBounds" />
          </mxGeometry>
        </mxCell>
        <mxCell id="5Poz6dqx_JnwCEKSfS_G-138" value="" style="shape=tableRow;horizontal=0;startSize=0;swimlaneHead=0;swimlaneBody=0;fillColor=none;collapsible=0;dropTarget=0;points=[[0,0.5],[1,0.5]];portConstraint=eastwest;top=0;left=0;right=0;bottom=0;strokeColor=#EEEEEE;fontColor=#FFFFFF;" vertex="1" parent="5Poz6dqx_JnwCEKSfS_G-17">
          <mxGeometry y="180" width="180" height="30" as="geometry" />
        </mxCell>
        <mxCell id="5Poz6dqx_JnwCEKSfS_G-139" value="" style="shape=partialRectangle;connectable=0;fillColor=none;top=0;left=0;bottom=0;right=0;editable=1;overflow=hidden;strokeColor=#EEEEEE;fontColor=#FFFFFF;" vertex="1" parent="5Poz6dqx_JnwCEKSfS_G-138">
          <mxGeometry width="30" height="30" as="geometry">
            <mxRectangle width="30" height="30" as="alternateBounds" />
          </mxGeometry>
        </mxCell>
        <mxCell id="5Poz6dqx_JnwCEKSfS_G-140" value="description (text)" style="shape=partialRectangle;connectable=0;fillColor=none;top=0;left=0;bottom=0;right=0;align=left;spacingLeft=6;overflow=hidden;strokeColor=#EEEEEE;fontColor=#FFFFFF;" vertex="1" parent="5Poz6dqx_JnwCEKSfS_G-138">
          <mxGeometry x="30" width="150" height="30" as="geometry">
            <mxRectangle width="150" height="30" as="alternateBounds" />
          </mxGeometry>
        </mxCell>
        <mxCell id="5Poz6dqx_JnwCEKSfS_G-95" value="team_study_times" style="shape=table;startSize=30;container=1;collapsible=1;childLayout=tableLayout;fixedRows=1;rowLines=0;fontStyle=1;align=center;resizeLast=1;html=1;rounded=0;labelBackgroundColor=none;fillColor=#004C99;strokeColor=#EEEEEE;fontColor=#FFFFFF;" vertex="1" parent="1">
          <mxGeometry x="570" y="530" width="180" height="150" as="geometry" />
        </mxCell>
        <mxCell id="5Poz6dqx_JnwCEKSfS_G-96" value="" style="shape=tableRow;horizontal=0;startSize=0;swimlaneHead=0;swimlaneBody=0;fillColor=none;collapsible=0;dropTarget=0;points=[[0,0.5],[1,0.5]];portConstraint=eastwest;top=0;left=0;right=0;bottom=1;rounded=1;labelBackgroundColor=none;strokeColor=#EEEEEE;fontColor=#FFFFFF;" vertex="1" parent="5Poz6dqx_JnwCEKSfS_G-95">
          <mxGeometry y="30" width="180" height="30" as="geometry" />
        </mxCell>
        <mxCell id="5Poz6dqx_JnwCEKSfS_G-97" value="PK" style="shape=partialRectangle;connectable=0;fillColor=none;top=0;left=0;bottom=0;right=0;fontStyle=1;overflow=hidden;whiteSpace=wrap;html=1;rounded=1;labelBackgroundColor=none;strokeColor=#EEEEEE;fontColor=#FFFFFF;" vertex="1" parent="5Poz6dqx_JnwCEKSfS_G-96">
          <mxGeometry width="30" height="30" as="geometry">
            <mxRectangle width="30" height="30" as="alternateBounds" />
          </mxGeometry>
        </mxCell>
        <mxCell id="5Poz6dqx_JnwCEKSfS_G-98" value="UniqueID" style="shape=partialRectangle;connectable=0;fillColor=none;top=0;left=0;bottom=0;right=0;align=left;spacingLeft=6;fontStyle=5;overflow=hidden;whiteSpace=wrap;html=1;rounded=1;labelBackgroundColor=none;strokeColor=#EEEEEE;fontColor=#FFFFFF;" vertex="1" parent="5Poz6dqx_JnwCEKSfS_G-96">
          <mxGeometry x="30" width="150" height="30" as="geometry">
            <mxRectangle width="150" height="30" as="alternateBounds" />
          </mxGeometry>
        </mxCell>
        <mxCell id="5Poz6dqx_JnwCEKSfS_G-99" value="" style="shape=tableRow;horizontal=0;startSize=0;swimlaneHead=0;swimlaneBody=0;fillColor=none;collapsible=0;dropTarget=0;points=[[0,0.5],[1,0.5]];portConstraint=eastwest;top=0;left=0;right=0;bottom=0;rounded=1;labelBackgroundColor=none;strokeColor=#EEEEEE;fontColor=#FFFFFF;" vertex="1" parent="5Poz6dqx_JnwCEKSfS_G-95">
          <mxGeometry y="60" width="180" height="30" as="geometry" />
        </mxCell>
        <mxCell id="5Poz6dqx_JnwCEKSfS_G-100" value="FK" style="shape=partialRectangle;connectable=0;fillColor=none;top=0;left=0;bottom=0;right=0;editable=1;overflow=hidden;whiteSpace=wrap;html=1;rounded=1;labelBackgroundColor=none;strokeColor=#EEEEEE;fontColor=#FFFFFF;" vertex="1" parent="5Poz6dqx_JnwCEKSfS_G-99">
          <mxGeometry width="30" height="30" as="geometry">
            <mxRectangle width="30" height="30" as="alternateBounds" />
          </mxGeometry>
        </mxCell>
        <mxCell id="5Poz6dqx_JnwCEKSfS_G-101" value="user_id" style="shape=partialRectangle;connectable=0;fillColor=none;top=0;left=0;bottom=0;right=0;align=left;spacingLeft=6;overflow=hidden;whiteSpace=wrap;html=1;rounded=1;labelBackgroundColor=none;strokeColor=#EEEEEE;fontColor=#FFFFFF;" vertex="1" parent="5Poz6dqx_JnwCEKSfS_G-99">
          <mxGeometry x="30" width="150" height="30" as="geometry">
            <mxRectangle width="150" height="30" as="alternateBounds" />
          </mxGeometry>
        </mxCell>
        <mxCell id="5Poz6dqx_JnwCEKSfS_G-102" value="" style="shape=tableRow;horizontal=0;startSize=0;swimlaneHead=0;swimlaneBody=0;fillColor=none;collapsible=0;dropTarget=0;points=[[0,0.5],[1,0.5]];portConstraint=eastwest;top=0;left=0;right=0;bottom=0;rounded=1;labelBackgroundColor=none;strokeColor=#EEEEEE;fontColor=#FFFFFF;" vertex="1" parent="5Poz6dqx_JnwCEKSfS_G-95">
          <mxGeometry y="90" width="180" height="30" as="geometry" />
        </mxCell>
        <mxCell id="5Poz6dqx_JnwCEKSfS_G-103" value="FK" style="shape=partialRectangle;connectable=0;fillColor=none;top=0;left=0;bottom=0;right=0;editable=1;overflow=hidden;whiteSpace=wrap;html=1;rounded=1;labelBackgroundColor=none;strokeColor=#EEEEEE;fontColor=#FFFFFF;" vertex="1" parent="5Poz6dqx_JnwCEKSfS_G-102">
          <mxGeometry width="30" height="30" as="geometry">
            <mxRectangle width="30" height="30" as="alternateBounds" />
          </mxGeometry>
        </mxCell>
        <mxCell id="5Poz6dqx_JnwCEKSfS_G-104" value="team_id" style="shape=partialRectangle;connectable=0;fillColor=none;top=0;left=0;bottom=0;right=0;align=left;spacingLeft=6;overflow=hidden;whiteSpace=wrap;html=1;rounded=1;labelBackgroundColor=none;strokeColor=#EEEEEE;fontColor=#FFFFFF;" vertex="1" parent="5Poz6dqx_JnwCEKSfS_G-102">
          <mxGeometry x="30" width="150" height="30" as="geometry">
            <mxRectangle width="150" height="30" as="alternateBounds" />
          </mxGeometry>
        </mxCell>
        <mxCell id="5Poz6dqx_JnwCEKSfS_G-105" value="" style="shape=tableRow;horizontal=0;startSize=0;swimlaneHead=0;swimlaneBody=0;fillColor=none;collapsible=0;dropTarget=0;points=[[0,0.5],[1,0.5]];portConstraint=eastwest;top=0;left=0;right=0;bottom=0;rounded=1;labelBackgroundColor=none;strokeColor=#EEEEEE;fontColor=#FFFFFF;" vertex="1" parent="5Poz6dqx_JnwCEKSfS_G-95">
          <mxGeometry y="120" width="180" height="30" as="geometry" />
        </mxCell>
        <mxCell id="5Poz6dqx_JnwCEKSfS_G-106" value="" style="shape=partialRectangle;connectable=0;fillColor=none;top=0;left=0;bottom=0;right=0;editable=1;overflow=hidden;whiteSpace=wrap;html=1;rounded=1;labelBackgroundColor=none;strokeColor=#EEEEEE;fontColor=#FFFFFF;" vertex="1" parent="5Poz6dqx_JnwCEKSfS_G-105">
          <mxGeometry width="30" height="30" as="geometry">
            <mxRectangle width="30" height="30" as="alternateBounds" />
          </mxGeometry>
        </mxCell>
        <mxCell id="5Poz6dqx_JnwCEKSfS_G-107" value="team_total_time (integer)" style="shape=partialRectangle;connectable=0;fillColor=none;top=0;left=0;bottom=0;right=0;align=left;spacingLeft=6;overflow=hidden;whiteSpace=wrap;html=1;rounded=1;labelBackgroundColor=none;strokeColor=#EEEEEE;fontColor=#FFFFFF;" vertex="1" parent="5Poz6dqx_JnwCEKSfS_G-105">
          <mxGeometry x="30" width="150" height="30" as="geometry">
            <mxRectangle width="150" height="30" as="alternateBounds" />
          </mxGeometry>
        </mxCell>
        <mxCell id="5Poz6dqx_JnwCEKSfS_G-108" value="direct_message" style="shape=table;startSize=30;container=1;collapsible=1;childLayout=tableLayout;fixedRows=1;rowLines=0;fontStyle=1;align=center;resizeLast=1;html=1;rounded=0;labelBackgroundColor=none;fillColor=#004C99;strokeColor=#EEEEEE;fontColor=#FFFFFF;arcSize=50;swimlaneLine=1;shadow=0;perimeterSpacing=0;" vertex="1" parent="1">
          <mxGeometry x="243" y="591" width="180" height="150" as="geometry" />
        </mxCell>
        <mxCell id="5Poz6dqx_JnwCEKSfS_G-109" value="" style="shape=tableRow;horizontal=0;startSize=0;swimlaneHead=0;swimlaneBody=0;fillColor=none;collapsible=0;dropTarget=0;points=[[0,0.5],[1,0.5]];portConstraint=eastwest;top=0;left=0;right=0;bottom=1;rounded=1;labelBackgroundColor=none;strokeColor=#EEEEEE;fontColor=#FFFFFF;" vertex="1" parent="5Poz6dqx_JnwCEKSfS_G-108">
          <mxGeometry y="30" width="180" height="30" as="geometry" />
        </mxCell>
        <mxCell id="5Poz6dqx_JnwCEKSfS_G-110" value="PK" style="shape=partialRectangle;connectable=0;fillColor=none;top=0;left=0;bottom=0;right=0;fontStyle=1;overflow=hidden;whiteSpace=wrap;html=1;rounded=1;labelBackgroundColor=none;strokeColor=#EEEEEE;fontColor=#FFFFFF;" vertex="1" parent="5Poz6dqx_JnwCEKSfS_G-109">
          <mxGeometry width="30" height="30" as="geometry">
            <mxRectangle width="30" height="30" as="alternateBounds" />
          </mxGeometry>
        </mxCell>
        <mxCell id="5Poz6dqx_JnwCEKSfS_G-111" value="UniqueID" style="shape=partialRectangle;connectable=0;fillColor=none;top=0;left=0;bottom=0;right=0;align=left;spacingLeft=6;fontStyle=5;overflow=hidden;whiteSpace=wrap;html=1;rounded=1;labelBackgroundColor=none;strokeColor=#EEEEEE;fontColor=#FFFFFF;" vertex="1" parent="5Poz6dqx_JnwCEKSfS_G-109">
          <mxGeometry x="30" width="150" height="30" as="geometry">
            <mxRectangle width="150" height="30" as="alternateBounds" />
          </mxGeometry>
        </mxCell>
        <mxCell id="5Poz6dqx_JnwCEKSfS_G-112" value="" style="shape=tableRow;horizontal=0;startSize=0;swimlaneHead=0;swimlaneBody=0;fillColor=none;collapsible=0;dropTarget=0;points=[[0,0.5],[1,0.5]];portConstraint=eastwest;top=0;left=0;right=0;bottom=0;rounded=1;labelBackgroundColor=none;strokeColor=#EEEEEE;fontColor=#FFFFFF;" vertex="1" parent="5Poz6dqx_JnwCEKSfS_G-108">
          <mxGeometry y="60" width="180" height="30" as="geometry" />
        </mxCell>
        <mxCell id="5Poz6dqx_JnwCEKSfS_G-113" value="FK" style="shape=partialRectangle;connectable=0;fillColor=none;top=0;left=0;bottom=0;right=0;editable=1;overflow=hidden;whiteSpace=wrap;html=1;rounded=1;labelBackgroundColor=none;strokeColor=#EEEEEE;fontColor=#FFFFFF;" vertex="1" parent="5Poz6dqx_JnwCEKSfS_G-112">
          <mxGeometry width="30" height="30" as="geometry">
            <mxRectangle width="30" height="30" as="alternateBounds" />
          </mxGeometry>
        </mxCell>
        <mxCell id="5Poz6dqx_JnwCEKSfS_G-114" value="user_id" style="shape=partialRectangle;connectable=0;fillColor=none;top=0;left=0;bottom=0;right=0;align=left;spacingLeft=6;overflow=hidden;whiteSpace=wrap;html=1;rounded=1;labelBackgroundColor=none;strokeColor=#EEEEEE;fontColor=#FFFFFF;" vertex="1" parent="5Poz6dqx_JnwCEKSfS_G-112">
          <mxGeometry x="30" width="150" height="30" as="geometry">
            <mxRectangle width="150" height="30" as="alternateBounds" />
          </mxGeometry>
        </mxCell>
        <mxCell id="5Poz6dqx_JnwCEKSfS_G-115" value="" style="shape=tableRow;horizontal=0;startSize=0;swimlaneHead=0;swimlaneBody=0;fillColor=none;collapsible=0;dropTarget=0;points=[[0,0.5],[1,0.5]];portConstraint=eastwest;top=0;left=0;right=0;bottom=0;rounded=1;labelBackgroundColor=none;strokeColor=#EEEEEE;fontColor=#FFFFFF;" vertex="1" parent="5Poz6dqx_JnwCEKSfS_G-108">
          <mxGeometry y="90" width="180" height="30" as="geometry" />
        </mxCell>
        <mxCell id="5Poz6dqx_JnwCEKSfS_G-116" value="FK" style="shape=partialRectangle;connectable=0;fillColor=none;top=0;left=0;bottom=0;right=0;editable=1;overflow=hidden;whiteSpace=wrap;html=1;rounded=1;labelBackgroundColor=none;strokeColor=#EEEEEE;fontColor=#FFFFFF;" vertex="1" parent="5Poz6dqx_JnwCEKSfS_G-115">
          <mxGeometry width="30" height="30" as="geometry">
            <mxRectangle width="30" height="30" as="alternateBounds" />
          </mxGeometry>
        </mxCell>
        <mxCell id="5Poz6dqx_JnwCEKSfS_G-117" value="room_id" style="shape=partialRectangle;connectable=0;fillColor=none;top=0;left=0;bottom=0;right=0;align=left;spacingLeft=6;overflow=hidden;whiteSpace=wrap;html=1;rounded=1;labelBackgroundColor=none;strokeColor=#EEEEEE;fontColor=#FFFFFF;" vertex="1" parent="5Poz6dqx_JnwCEKSfS_G-115">
          <mxGeometry x="30" width="150" height="30" as="geometry">
            <mxRectangle width="150" height="30" as="alternateBounds" />
          </mxGeometry>
        </mxCell>
        <mxCell id="5Poz6dqx_JnwCEKSfS_G-118" value="" style="shape=tableRow;horizontal=0;startSize=0;swimlaneHead=0;swimlaneBody=0;fillColor=none;collapsible=0;dropTarget=0;points=[[0,0.5],[1,0.5]];portConstraint=eastwest;top=0;left=0;right=0;bottom=0;rounded=1;labelBackgroundColor=none;strokeColor=#EEEEEE;fontColor=#FFFFFF;" vertex="1" parent="5Poz6dqx_JnwCEKSfS_G-108">
          <mxGeometry y="120" width="180" height="30" as="geometry" />
        </mxCell>
        <mxCell id="5Poz6dqx_JnwCEKSfS_G-119" value="" style="shape=partialRectangle;connectable=0;fillColor=none;top=0;left=0;bottom=0;right=0;editable=1;overflow=hidden;whiteSpace=wrap;html=1;rounded=1;labelBackgroundColor=none;strokeColor=#EEEEEE;fontColor=#FFFFFF;" vertex="1" parent="5Poz6dqx_JnwCEKSfS_G-118">
          <mxGeometry width="30" height="30" as="geometry">
            <mxRectangle width="30" height="30" as="alternateBounds" />
          </mxGeometry>
        </mxCell>
        <mxCell id="5Poz6dqx_JnwCEKSfS_G-120" value="content (text)" style="shape=partialRectangle;connectable=0;fillColor=none;top=0;left=0;bottom=0;right=0;align=left;spacingLeft=6;overflow=hidden;whiteSpace=wrap;html=1;rounded=1;labelBackgroundColor=none;strokeColor=#EEEEEE;fontColor=#FFFFFF;" vertex="1" parent="5Poz6dqx_JnwCEKSfS_G-118">
          <mxGeometry x="30" width="150" height="30" as="geometry">
            <mxRectangle width="150" height="30" as="alternateBounds" />
          </mxGeometry>
        </mxCell>
        <mxCell id="5Poz6dqx_JnwCEKSfS_G-4" value="teams" style="shape=table;startSize=30;container=1;collapsible=1;childLayout=tableLayout;fixedRows=1;rowLines=0;fontStyle=1;align=center;resizeLast=1;html=1;rounded=0;labelBackgroundColor=none;fillColor=#004C99;strokeColor=#EEEEEE;fontColor=#FFFFFF;arcSize=41;" vertex="1" parent="1">
          <mxGeometry x="-131" y="313" width="180" height="300" as="geometry" />
        </mxCell>
        <mxCell id="5Poz6dqx_JnwCEKSfS_G-5" value="" style="shape=tableRow;horizontal=0;startSize=0;swimlaneHead=0;swimlaneBody=0;fillColor=none;collapsible=0;dropTarget=0;points=[[0,0.5],[1,0.5]];portConstraint=eastwest;top=0;left=0;right=0;bottom=1;rounded=1;labelBackgroundColor=none;strokeColor=#EEEEEE;fontColor=#FFFFFF;" vertex="1" parent="5Poz6dqx_JnwCEKSfS_G-4">
          <mxGeometry y="30" width="180" height="30" as="geometry" />
        </mxCell>
        <mxCell id="5Poz6dqx_JnwCEKSfS_G-6" value="PK" style="shape=partialRectangle;connectable=0;fillColor=none;top=0;left=0;bottom=0;right=0;fontStyle=1;overflow=hidden;whiteSpace=wrap;html=1;rounded=1;labelBackgroundColor=none;strokeColor=#EEEEEE;fontColor=#FFFFFF;" vertex="1" parent="5Poz6dqx_JnwCEKSfS_G-5">
          <mxGeometry width="30" height="30" as="geometry">
            <mxRectangle width="30" height="30" as="alternateBounds" />
          </mxGeometry>
        </mxCell>
        <mxCell id="5Poz6dqx_JnwCEKSfS_G-7" value="UniqueID" style="shape=partialRectangle;connectable=0;fillColor=none;top=0;left=0;bottom=0;right=0;align=left;spacingLeft=6;fontStyle=5;overflow=hidden;whiteSpace=wrap;html=1;rounded=1;labelBackgroundColor=none;strokeColor=#EEEEEE;fontColor=#FFFFFF;" vertex="1" parent="5Poz6dqx_JnwCEKSfS_G-5">
          <mxGeometry x="30" width="150" height="30" as="geometry">
            <mxRectangle width="150" height="30" as="alternateBounds" />
          </mxGeometry>
        </mxCell>
        <mxCell id="5Poz6dqx_JnwCEKSfS_G-8" value="" style="shape=tableRow;horizontal=0;startSize=0;swimlaneHead=0;swimlaneBody=0;fillColor=none;collapsible=0;dropTarget=0;points=[[0,0.5],[1,0.5]];portConstraint=eastwest;top=0;left=0;right=0;bottom=0;rounded=1;labelBackgroundColor=none;strokeColor=#EEEEEE;fontColor=#FFFFFF;" vertex="1" parent="5Poz6dqx_JnwCEKSfS_G-4">
          <mxGeometry y="60" width="180" height="30" as="geometry" />
        </mxCell>
        <mxCell id="5Poz6dqx_JnwCEKSfS_G-9" value="FK" style="shape=partialRectangle;connectable=0;fillColor=none;top=0;left=0;bottom=0;right=0;editable=1;overflow=hidden;whiteSpace=wrap;html=1;rounded=1;labelBackgroundColor=none;strokeColor=#EEEEEE;fontColor=#FFFFFF;" vertex="1" parent="5Poz6dqx_JnwCEKSfS_G-8">
          <mxGeometry width="30" height="30" as="geometry">
            <mxRectangle width="30" height="30" as="alternateBounds" />
          </mxGeometry>
        </mxCell>
        <mxCell id="5Poz6dqx_JnwCEKSfS_G-10" value="user_id" style="shape=partialRectangle;connectable=0;fillColor=none;top=0;left=0;bottom=0;right=0;align=left;spacingLeft=6;overflow=hidden;whiteSpace=wrap;html=1;rounded=1;labelBackgroundColor=none;strokeColor=#EEEEEE;fontColor=#FFFFFF;" vertex="1" parent="5Poz6dqx_JnwCEKSfS_G-8">
          <mxGeometry x="30" width="150" height="30" as="geometry">
            <mxRectangle width="150" height="30" as="alternateBounds" />
          </mxGeometry>
        </mxCell>
        <mxCell id="5Poz6dqx_JnwCEKSfS_G-261" value="" style="shape=tableRow;horizontal=0;startSize=0;swimlaneHead=0;swimlaneBody=0;fillColor=none;collapsible=0;dropTarget=0;points=[[0,0.5],[1,0.5]];portConstraint=eastwest;top=0;left=0;right=0;bottom=0;rounded=1;labelBackgroundColor=none;strokeColor=#EEEEEE;fontColor=#FFFFFF;" vertex="1" parent="5Poz6dqx_JnwCEKSfS_G-4">
          <mxGeometry y="90" width="180" height="30" as="geometry" />
        </mxCell>
        <mxCell id="5Poz6dqx_JnwCEKSfS_G-262" value="" style="shape=partialRectangle;connectable=0;fillColor=none;top=0;left=0;bottom=0;right=0;editable=1;overflow=hidden;whiteSpace=wrap;html=1;rounded=1;labelBackgroundColor=none;strokeColor=#EEEEEE;fontColor=#FFFFFF;" vertex="1" parent="5Poz6dqx_JnwCEKSfS_G-261">
          <mxGeometry width="30" height="30" as="geometry">
            <mxRectangle width="30" height="30" as="alternateBounds" />
          </mxGeometry>
        </mxCell>
        <mxCell id="5Poz6dqx_JnwCEKSfS_G-263" value="target_time (string)" style="shape=partialRectangle;connectable=0;fillColor=none;top=0;left=0;bottom=0;right=0;align=left;spacingLeft=6;overflow=hidden;whiteSpace=wrap;html=1;rounded=1;labelBackgroundColor=none;strokeColor=#EEEEEE;fontColor=#FFFFFF;" vertex="1" parent="5Poz6dqx_JnwCEKSfS_G-261">
          <mxGeometry x="30" width="150" height="30" as="geometry">
            <mxRectangle width="150" height="30" as="alternateBounds" />
          </mxGeometry>
        </mxCell>
        <mxCell id="5Poz6dqx_JnwCEKSfS_G-142" value="" style="shape=tableRow;horizontal=0;startSize=0;swimlaneHead=0;swimlaneBody=0;fillColor=none;collapsible=0;dropTarget=0;points=[[0,0.5],[1,0.5]];portConstraint=eastwest;top=0;left=0;right=0;bottom=0;strokeColor=#EEEEEE;fontColor=#FFFFFF;" vertex="1" parent="5Poz6dqx_JnwCEKSfS_G-4">
          <mxGeometry y="120" width="180" height="30" as="geometry" />
        </mxCell>
        <mxCell id="5Poz6dqx_JnwCEKSfS_G-143" value="" style="shape=partialRectangle;connectable=0;fillColor=none;top=0;left=0;bottom=0;right=0;editable=1;overflow=hidden;strokeColor=#EEEEEE;fontColor=#FFFFFF;" vertex="1" parent="5Poz6dqx_JnwCEKSfS_G-142">
          <mxGeometry width="30" height="30" as="geometry">
            <mxRectangle width="30" height="30" as="alternateBounds" />
          </mxGeometry>
        </mxCell>
        <mxCell id="5Poz6dqx_JnwCEKSfS_G-144" value="start_date (date)" style="shape=partialRectangle;connectable=0;fillColor=none;top=0;left=0;bottom=0;right=0;align=left;spacingLeft=6;overflow=hidden;strokeColor=#EEEEEE;fontColor=#FFFFFF;" vertex="1" parent="5Poz6dqx_JnwCEKSfS_G-142">
          <mxGeometry x="30" width="150" height="30" as="geometry">
            <mxRectangle width="150" height="30" as="alternateBounds" />
          </mxGeometry>
        </mxCell>
        <mxCell id="5Poz6dqx_JnwCEKSfS_G-146" value="" style="shape=tableRow;horizontal=0;startSize=0;swimlaneHead=0;swimlaneBody=0;fillColor=none;collapsible=0;dropTarget=0;points=[[0,0.5],[1,0.5]];portConstraint=eastwest;top=0;left=0;right=0;bottom=0;strokeColor=#EEEEEE;fontColor=#FFFFFF;" vertex="1" parent="5Poz6dqx_JnwCEKSfS_G-4">
          <mxGeometry y="150" width="180" height="30" as="geometry" />
        </mxCell>
        <mxCell id="5Poz6dqx_JnwCEKSfS_G-147" value="" style="shape=partialRectangle;connectable=0;fillColor=none;top=0;left=0;bottom=0;right=0;editable=1;overflow=hidden;strokeColor=#EEEEEE;fontColor=#FFFFFF;" vertex="1" parent="5Poz6dqx_JnwCEKSfS_G-146">
          <mxGeometry width="30" height="30" as="geometry">
            <mxRectangle width="30" height="30" as="alternateBounds" />
          </mxGeometry>
        </mxCell>
        <mxCell id="5Poz6dqx_JnwCEKSfS_G-148" value="end_date (date)" style="shape=partialRectangle;connectable=0;fillColor=none;top=0;left=0;bottom=0;right=0;align=left;spacingLeft=6;overflow=hidden;strokeColor=#EEEEEE;fontColor=#FFFFFF;" vertex="1" parent="5Poz6dqx_JnwCEKSfS_G-146">
          <mxGeometry x="30" width="150" height="30" as="geometry">
            <mxRectangle width="150" height="30" as="alternateBounds" />
          </mxGeometry>
        </mxCell>
        <mxCell id="5Poz6dqx_JnwCEKSfS_G-150" value="" style="shape=tableRow;horizontal=0;startSize=0;swimlaneHead=0;swimlaneBody=0;fillColor=none;collapsible=0;dropTarget=0;points=[[0,0.5],[1,0.5]];portConstraint=eastwest;top=0;left=0;right=0;bottom=0;strokeColor=#EEEEEE;fontColor=#FFFFFF;" vertex="1" parent="5Poz6dqx_JnwCEKSfS_G-4">
          <mxGeometry y="180" width="180" height="30" as="geometry" />
        </mxCell>
        <mxCell id="5Poz6dqx_JnwCEKSfS_G-151" value="" style="shape=partialRectangle;connectable=0;fillColor=none;top=0;left=0;bottom=0;right=0;editable=1;overflow=hidden;strokeColor=#EEEEEE;fontColor=#FFFFFF;" vertex="1" parent="5Poz6dqx_JnwCEKSfS_G-150">
          <mxGeometry width="30" height="30" as="geometry">
            <mxRectangle width="30" height="30" as="alternateBounds" />
          </mxGeometry>
        </mxCell>
        <mxCell id="5Poz6dqx_JnwCEKSfS_G-152" value="capacity (string)" style="shape=partialRectangle;connectable=0;fillColor=none;top=0;left=0;bottom=0;right=0;align=left;spacingLeft=6;overflow=hidden;strokeColor=#EEEEEE;fontColor=#FFFFFF;" vertex="1" parent="5Poz6dqx_JnwCEKSfS_G-150">
          <mxGeometry x="30" width="150" height="30" as="geometry">
            <mxRectangle width="150" height="30" as="alternateBounds" />
          </mxGeometry>
        </mxCell>
        <mxCell id="5Poz6dqx_JnwCEKSfS_G-14" value="" style="shape=tableRow;horizontal=0;startSize=0;swimlaneHead=0;swimlaneBody=0;fillColor=none;collapsible=0;dropTarget=0;points=[[0,0.5],[1,0.5]];portConstraint=eastwest;top=0;left=0;right=0;bottom=0;rounded=1;labelBackgroundColor=none;strokeColor=#EEEEEE;fontColor=#FFFFFF;" vertex="1" parent="5Poz6dqx_JnwCEKSfS_G-4">
          <mxGeometry y="210" width="180" height="30" as="geometry" />
        </mxCell>
        <mxCell id="5Poz6dqx_JnwCEKSfS_G-15" value="" style="shape=partialRectangle;connectable=0;fillColor=none;top=0;left=0;bottom=0;right=0;editable=1;overflow=hidden;whiteSpace=wrap;html=1;rounded=1;labelBackgroundColor=none;strokeColor=#EEEEEE;fontColor=#FFFFFF;" vertex="1" parent="5Poz6dqx_JnwCEKSfS_G-14">
          <mxGeometry width="30" height="30" as="geometry">
            <mxRectangle width="30" height="30" as="alternateBounds" />
          </mxGeometry>
        </mxCell>
        <mxCell id="5Poz6dqx_JnwCEKSfS_G-16" value="thubmnail (string)" style="shape=partialRectangle;connectable=0;fillColor=none;top=0;left=0;bottom=0;right=0;align=left;spacingLeft=6;overflow=hidden;whiteSpace=wrap;html=1;rounded=1;labelBackgroundColor=none;strokeColor=#EEEEEE;fontColor=#FFFFFF;" vertex="1" parent="5Poz6dqx_JnwCEKSfS_G-14">
          <mxGeometry x="30" width="150" height="30" as="geometry">
            <mxRectangle width="150" height="30" as="alternateBounds" />
          </mxGeometry>
        </mxCell>
        <mxCell id="5Poz6dqx_JnwCEKSfS_G-158" value="" style="shape=tableRow;horizontal=0;startSize=0;swimlaneHead=0;swimlaneBody=0;fillColor=none;collapsible=0;dropTarget=0;points=[[0,0.5],[1,0.5]];portConstraint=eastwest;top=0;left=0;right=0;bottom=0;strokeColor=#EEEEEE;fontColor=#FFFFFF;" vertex="1" parent="5Poz6dqx_JnwCEKSfS_G-4">
          <mxGeometry y="240" width="180" height="30" as="geometry" />
        </mxCell>
        <mxCell id="5Poz6dqx_JnwCEKSfS_G-159" value="" style="shape=partialRectangle;connectable=0;fillColor=none;top=0;left=0;bottom=0;right=0;editable=1;overflow=hidden;strokeColor=#EEEEEE;fontColor=#FFFFFF;" vertex="1" parent="5Poz6dqx_JnwCEKSfS_G-158">
          <mxGeometry width="30" height="30" as="geometry">
            <mxRectangle width="30" height="30" as="alternateBounds" />
          </mxGeometry>
        </mxCell>
        <mxCell id="5Poz6dqx_JnwCEKSfS_G-160" value="description (text)" style="shape=partialRectangle;connectable=0;fillColor=none;top=0;left=0;bottom=0;right=0;align=left;spacingLeft=6;overflow=hidden;strokeColor=#EEEEEE;fontColor=#FFFFFF;" vertex="1" parent="5Poz6dqx_JnwCEKSfS_G-158">
          <mxGeometry x="30" width="150" height="30" as="geometry">
            <mxRectangle width="150" height="30" as="alternateBounds" />
          </mxGeometry>
        </mxCell>
        <mxCell id="5Poz6dqx_JnwCEKSfS_G-154" value="" style="shape=tableRow;horizontal=0;startSize=0;swimlaneHead=0;swimlaneBody=0;fillColor=none;collapsible=0;dropTarget=0;points=[[0,0.5],[1,0.5]];portConstraint=eastwest;top=0;left=0;right=0;bottom=0;strokeColor=#EEEEEE;fontColor=#FFFFFF;" vertex="1" parent="5Poz6dqx_JnwCEKSfS_G-4">
          <mxGeometry y="270" width="180" height="30" as="geometry" />
        </mxCell>
        <mxCell id="5Poz6dqx_JnwCEKSfS_G-155" value="" style="shape=partialRectangle;connectable=0;fillColor=none;top=0;left=0;bottom=0;right=0;editable=1;overflow=hidden;strokeColor=#EEEEEE;fontColor=#FFFFFF;" vertex="1" parent="5Poz6dqx_JnwCEKSfS_G-154">
          <mxGeometry width="30" height="30" as="geometry">
            <mxRectangle width="30" height="30" as="alternateBounds" />
          </mxGeometry>
        </mxCell>
        <mxCell id="5Poz6dqx_JnwCEKSfS_G-156" value="title (string)" style="shape=partialRectangle;connectable=0;fillColor=none;top=0;left=0;bottom=0;right=0;align=left;spacingLeft=6;overflow=hidden;strokeColor=#EEEEEE;fontColor=#FFFFFF;" vertex="1" parent="5Poz6dqx_JnwCEKSfS_G-154">
          <mxGeometry x="30" width="150" height="30" as="geometry">
            <mxRectangle width="150" height="30" as="alternateBounds" />
          </mxGeometry>
        </mxCell>
        <mxCell id="5Poz6dqx_JnwCEKSfS_G-43" value="team_attendances" style="shape=table;startSize=30;container=1;collapsible=1;childLayout=tableLayout;fixedRows=1;rowLines=0;fontStyle=1;align=center;resizeLast=1;html=1;rounded=0;labelBackgroundColor=none;fillColor=#004C99;strokeColor=#EEEEEE;fontColor=#FFFFFF;" vertex="1" parent="1">
          <mxGeometry x="236" y="24" width="180" height="120" as="geometry" />
        </mxCell>
        <mxCell id="5Poz6dqx_JnwCEKSfS_G-44" value="" style="shape=tableRow;horizontal=0;startSize=0;swimlaneHead=0;swimlaneBody=0;fillColor=none;collapsible=0;dropTarget=0;points=[[0,0.5],[1,0.5]];portConstraint=eastwest;top=0;left=0;right=0;bottom=1;rounded=1;labelBackgroundColor=none;strokeColor=#EEEEEE;fontColor=#FFFFFF;" vertex="1" parent="5Poz6dqx_JnwCEKSfS_G-43">
          <mxGeometry y="30" width="180" height="30" as="geometry" />
        </mxCell>
        <mxCell id="5Poz6dqx_JnwCEKSfS_G-45" value="PK" style="shape=partialRectangle;connectable=0;fillColor=none;top=0;left=0;bottom=0;right=0;fontStyle=1;overflow=hidden;whiteSpace=wrap;html=1;rounded=1;labelBackgroundColor=none;strokeColor=#EEEEEE;fontColor=#FFFFFF;" vertex="1" parent="5Poz6dqx_JnwCEKSfS_G-44">
          <mxGeometry width="30" height="30" as="geometry">
            <mxRectangle width="30" height="30" as="alternateBounds" />
          </mxGeometry>
        </mxCell>
        <mxCell id="5Poz6dqx_JnwCEKSfS_G-46" value="UniqueID" style="shape=partialRectangle;connectable=0;fillColor=none;top=0;left=0;bottom=0;right=0;align=left;spacingLeft=6;fontStyle=5;overflow=hidden;whiteSpace=wrap;html=1;rounded=1;labelBackgroundColor=none;strokeColor=#EEEEEE;fontColor=#FFFFFF;" vertex="1" parent="5Poz6dqx_JnwCEKSfS_G-44">
          <mxGeometry x="30" width="150" height="30" as="geometry">
            <mxRectangle width="150" height="30" as="alternateBounds" />
          </mxGeometry>
        </mxCell>
        <mxCell id="5Poz6dqx_JnwCEKSfS_G-47" value="" style="shape=tableRow;horizontal=0;startSize=0;swimlaneHead=0;swimlaneBody=0;fillColor=none;collapsible=0;dropTarget=0;points=[[0,0.5],[1,0.5]];portConstraint=eastwest;top=0;left=0;right=0;bottom=0;rounded=1;labelBackgroundColor=none;strokeColor=#EEEEEE;fontColor=#FFFFFF;" vertex="1" parent="5Poz6dqx_JnwCEKSfS_G-43">
          <mxGeometry y="60" width="180" height="30" as="geometry" />
        </mxCell>
        <mxCell id="5Poz6dqx_JnwCEKSfS_G-48" value="FK" style="shape=partialRectangle;connectable=0;fillColor=none;top=0;left=0;bottom=0;right=0;editable=1;overflow=hidden;whiteSpace=wrap;html=1;rounded=1;labelBackgroundColor=none;strokeColor=#EEEEEE;fontColor=#FFFFFF;" vertex="1" parent="5Poz6dqx_JnwCEKSfS_G-47">
          <mxGeometry width="30" height="30" as="geometry">
            <mxRectangle width="30" height="30" as="alternateBounds" />
          </mxGeometry>
        </mxCell>
        <mxCell id="5Poz6dqx_JnwCEKSfS_G-49" value="user_id" style="shape=partialRectangle;connectable=0;fillColor=none;top=0;left=0;bottom=0;right=0;align=left;spacingLeft=6;overflow=hidden;whiteSpace=wrap;html=1;rounded=1;labelBackgroundColor=none;strokeColor=#EEEEEE;fontColor=#FFFFFF;" vertex="1" parent="5Poz6dqx_JnwCEKSfS_G-47">
          <mxGeometry x="30" width="150" height="30" as="geometry">
            <mxRectangle width="150" height="30" as="alternateBounds" />
          </mxGeometry>
        </mxCell>
        <mxCell id="5Poz6dqx_JnwCEKSfS_G-50" value="" style="shape=tableRow;horizontal=0;startSize=0;swimlaneHead=0;swimlaneBody=0;fillColor=none;collapsible=0;dropTarget=0;points=[[0,0.5],[1,0.5]];portConstraint=eastwest;top=0;left=0;right=0;bottom=0;rounded=1;labelBackgroundColor=none;strokeColor=#EEEEEE;fontColor=#FFFFFF;" vertex="1" parent="5Poz6dqx_JnwCEKSfS_G-43">
          <mxGeometry y="90" width="180" height="30" as="geometry" />
        </mxCell>
        <mxCell id="5Poz6dqx_JnwCEKSfS_G-51" value="FK" style="shape=partialRectangle;connectable=0;fillColor=none;top=0;left=0;bottom=0;right=0;editable=1;overflow=hidden;whiteSpace=wrap;html=1;rounded=1;labelBackgroundColor=none;strokeColor=#EEEEEE;fontColor=#FFFFFF;" vertex="1" parent="5Poz6dqx_JnwCEKSfS_G-50">
          <mxGeometry width="30" height="30" as="geometry">
            <mxRectangle width="30" height="30" as="alternateBounds" />
          </mxGeometry>
        </mxCell>
        <mxCell id="5Poz6dqx_JnwCEKSfS_G-52" value="team_id" style="shape=partialRectangle;connectable=0;fillColor=none;top=0;left=0;bottom=0;right=0;align=left;spacingLeft=6;overflow=hidden;whiteSpace=wrap;html=1;rounded=1;labelBackgroundColor=none;strokeColor=#EEEEEE;fontColor=#FFFFFF;" vertex="1" parent="5Poz6dqx_JnwCEKSfS_G-50">
          <mxGeometry x="30" width="150" height="30" as="geometry">
            <mxRectangle width="150" height="30" as="alternateBounds" />
          </mxGeometry>
        </mxCell>
        <mxCell id="5Poz6dqx_JnwCEKSfS_G-174" value="tags" style="shape=table;startSize=30;container=1;collapsible=1;childLayout=tableLayout;fixedRows=1;rowLines=0;fontStyle=1;align=center;resizeLast=1;html=1;rounded=0;labelBackgroundColor=none;fillColor=#004C99;strokeColor=#EEEEEE;fontColor=#FFFFFF;" vertex="1" parent="1">
          <mxGeometry x="-140" y="24" width="180" height="90" as="geometry" />
        </mxCell>
        <mxCell id="5Poz6dqx_JnwCEKSfS_G-175" value="" style="shape=tableRow;horizontal=0;startSize=0;swimlaneHead=0;swimlaneBody=0;fillColor=none;collapsible=0;dropTarget=0;points=[[0,0.5],[1,0.5]];portConstraint=eastwest;top=0;left=0;right=0;bottom=1;rounded=1;labelBackgroundColor=none;strokeColor=#EEEEEE;fontColor=#FFFFFF;" vertex="1" parent="5Poz6dqx_JnwCEKSfS_G-174">
          <mxGeometry y="30" width="180" height="30" as="geometry" />
        </mxCell>
        <mxCell id="5Poz6dqx_JnwCEKSfS_G-176" value="PK" style="shape=partialRectangle;connectable=0;fillColor=none;top=0;left=0;bottom=0;right=0;fontStyle=1;overflow=hidden;whiteSpace=wrap;html=1;rounded=1;labelBackgroundColor=none;strokeColor=#EEEEEE;fontColor=#FFFFFF;" vertex="1" parent="5Poz6dqx_JnwCEKSfS_G-175">
          <mxGeometry width="30" height="30" as="geometry">
            <mxRectangle width="30" height="30" as="alternateBounds" />
          </mxGeometry>
        </mxCell>
        <mxCell id="5Poz6dqx_JnwCEKSfS_G-177" value="UniqueID" style="shape=partialRectangle;connectable=0;fillColor=none;top=0;left=0;bottom=0;right=0;align=left;spacingLeft=6;fontStyle=5;overflow=hidden;whiteSpace=wrap;html=1;rounded=1;labelBackgroundColor=none;strokeColor=#EEEEEE;fontColor=#FFFFFF;" vertex="1" parent="5Poz6dqx_JnwCEKSfS_G-175">
          <mxGeometry x="30" width="150" height="30" as="geometry">
            <mxRectangle width="150" height="30" as="alternateBounds" />
          </mxGeometry>
        </mxCell>
        <mxCell id="5Poz6dqx_JnwCEKSfS_G-178" value="" style="shape=tableRow;horizontal=0;startSize=0;swimlaneHead=0;swimlaneBody=0;fillColor=none;collapsible=0;dropTarget=0;points=[[0,0.5],[1,0.5]];portConstraint=eastwest;top=0;left=0;right=0;bottom=0;rounded=1;labelBackgroundColor=none;strokeColor=#EEEEEE;fontColor=#FFFFFF;" vertex="1" parent="5Poz6dqx_JnwCEKSfS_G-174">
          <mxGeometry y="60" width="180" height="30" as="geometry" />
        </mxCell>
        <mxCell id="5Poz6dqx_JnwCEKSfS_G-179" value="" style="shape=partialRectangle;connectable=0;fillColor=none;top=0;left=0;bottom=0;right=0;editable=1;overflow=hidden;whiteSpace=wrap;html=1;rounded=1;labelBackgroundColor=none;strokeColor=#EEEEEE;fontColor=#FFFFFF;" vertex="1" parent="5Poz6dqx_JnwCEKSfS_G-178">
          <mxGeometry width="30" height="30" as="geometry">
            <mxRectangle width="30" height="30" as="alternateBounds" />
          </mxGeometry>
        </mxCell>
        <mxCell id="5Poz6dqx_JnwCEKSfS_G-180" value="name (string)" style="shape=partialRectangle;connectable=0;fillColor=none;top=0;left=0;bottom=0;right=0;align=left;spacingLeft=6;overflow=hidden;whiteSpace=wrap;html=1;rounded=1;labelBackgroundColor=none;strokeColor=#EEEEEE;fontColor=#FFFFFF;" vertex="1" parent="5Poz6dqx_JnwCEKSfS_G-178">
          <mxGeometry x="30" width="150" height="30" as="geometry">
            <mxRectangle width="150" height="30" as="alternateBounds" />
          </mxGeometry>
        </mxCell>
        <mxCell id="5Poz6dqx_JnwCEKSfS_G-209" value="break_times" style="shape=table;startSize=30;container=1;collapsible=1;childLayout=tableLayout;fixedRows=1;rowLines=0;fontStyle=1;align=center;resizeLast=1;html=1;rounded=0;labelBackgroundColor=none;fillColor=#004C99;strokeColor=#EEEEEE;fontColor=#FFFFFF;swimlaneFillColor=none;" vertex="1" parent="1">
          <mxGeometry x="700" y="282.74" width="210" height="180.26315789473688" as="geometry" />
        </mxCell>
        <mxCell id="5Poz6dqx_JnwCEKSfS_G-210" value="" style="shape=tableRow;horizontal=0;startSize=0;swimlaneHead=0;swimlaneBody=0;fillColor=none;collapsible=0;dropTarget=0;points=[[0,0.5],[1,0.5]];portConstraint=eastwest;top=0;left=0;right=0;bottom=1;rounded=1;labelBackgroundColor=none;strokeColor=#EEEEEE;fontColor=#FFFFFF;" vertex="1" parent="5Poz6dqx_JnwCEKSfS_G-209">
          <mxGeometry y="30" width="210" height="30" as="geometry" />
        </mxCell>
        <mxCell id="5Poz6dqx_JnwCEKSfS_G-211" value="PK" style="shape=partialRectangle;connectable=0;fillColor=none;top=0;left=0;bottom=0;right=0;fontStyle=1;overflow=hidden;whiteSpace=wrap;html=1;rounded=1;labelBackgroundColor=none;strokeColor=#EEEEEE;fontColor=#FFFFFF;" vertex="1" parent="5Poz6dqx_JnwCEKSfS_G-210">
          <mxGeometry width="30" height="30" as="geometry">
            <mxRectangle width="30" height="30" as="alternateBounds" />
          </mxGeometry>
        </mxCell>
        <mxCell id="5Poz6dqx_JnwCEKSfS_G-212" value="UniqueID" style="shape=partialRectangle;connectable=0;fillColor=none;top=0;left=0;bottom=0;right=0;align=left;spacingLeft=6;fontStyle=5;overflow=hidden;whiteSpace=wrap;html=1;rounded=1;labelBackgroundColor=none;strokeColor=#EEEEEE;fontColor=#FFFFFF;" vertex="1" parent="5Poz6dqx_JnwCEKSfS_G-210">
          <mxGeometry x="30" width="180" height="30" as="geometry">
            <mxRectangle width="180" height="30" as="alternateBounds" />
          </mxGeometry>
        </mxCell>
        <mxCell id="5Poz6dqx_JnwCEKSfS_G-213" value="" style="shape=tableRow;horizontal=0;startSize=0;swimlaneHead=0;swimlaneBody=0;fillColor=none;collapsible=0;dropTarget=0;points=[[0,0.5],[1,0.5]];portConstraint=eastwest;top=0;left=0;right=0;bottom=0;rounded=1;labelBackgroundColor=none;strokeColor=#EEEEEE;fontColor=#FFFFFF;" vertex="1" parent="5Poz6dqx_JnwCEKSfS_G-209">
          <mxGeometry y="60" width="210" height="30" as="geometry" />
        </mxCell>
        <mxCell id="5Poz6dqx_JnwCEKSfS_G-214" value="FK" style="shape=partialRectangle;connectable=0;fillColor=none;top=0;left=0;bottom=0;right=0;editable=1;overflow=hidden;whiteSpace=wrap;html=1;rounded=1;labelBackgroundColor=none;strokeColor=#EEEEEE;fontColor=#FFFFFF;" vertex="1" parent="5Poz6dqx_JnwCEKSfS_G-213">
          <mxGeometry width="30" height="30" as="geometry">
            <mxRectangle width="30" height="30" as="alternateBounds" />
          </mxGeometry>
        </mxCell>
        <mxCell id="5Poz6dqx_JnwCEKSfS_G-215" value="user_id" style="shape=partialRectangle;connectable=0;fillColor=none;top=0;left=0;bottom=0;right=0;align=left;spacingLeft=6;overflow=hidden;whiteSpace=wrap;html=1;rounded=1;labelBackgroundColor=none;strokeColor=#EEEEEE;fontColor=#FFFFFF;" vertex="1" parent="5Poz6dqx_JnwCEKSfS_G-213">
          <mxGeometry x="30" width="180" height="30" as="geometry">
            <mxRectangle width="180" height="30" as="alternateBounds" />
          </mxGeometry>
        </mxCell>
        <mxCell id="5Poz6dqx_JnwCEKSfS_G-216" value="" style="shape=tableRow;horizontal=0;startSize=0;swimlaneHead=0;swimlaneBody=0;fillColor=none;collapsible=0;dropTarget=0;points=[[0,0.5],[1,0.5]];portConstraint=eastwest;top=0;left=0;right=0;bottom=0;rounded=1;labelBackgroundColor=none;strokeColor=#EEEEEE;fontColor=#FFFFFF;" vertex="1" parent="5Poz6dqx_JnwCEKSfS_G-209">
          <mxGeometry y="90" width="210" height="30" as="geometry" />
        </mxCell>
        <mxCell id="5Poz6dqx_JnwCEKSfS_G-217" value="" style="shape=partialRectangle;connectable=0;fillColor=none;top=0;left=0;bottom=0;right=0;editable=1;overflow=hidden;whiteSpace=wrap;html=1;rounded=1;labelBackgroundColor=none;strokeColor=#EEEEEE;fontColor=#FFFFFF;" vertex="1" parent="5Poz6dqx_JnwCEKSfS_G-216">
          <mxGeometry width="30" height="30" as="geometry">
            <mxRectangle width="30" height="30" as="alternateBounds" />
          </mxGeometry>
        </mxCell>
        <mxCell id="5Poz6dqx_JnwCEKSfS_G-218" value="break_start_time (datetime)" style="shape=partialRectangle;connectable=0;fillColor=none;top=0;left=0;bottom=0;right=0;align=left;spacingLeft=6;overflow=hidden;whiteSpace=wrap;html=1;rounded=1;labelBackgroundColor=none;strokeColor=#EEEEEE;fontColor=#FFFFFF;" vertex="1" parent="5Poz6dqx_JnwCEKSfS_G-216">
          <mxGeometry x="30" width="180" height="30" as="geometry">
            <mxRectangle width="180" height="30" as="alternateBounds" />
          </mxGeometry>
        </mxCell>
        <mxCell id="5Poz6dqx_JnwCEKSfS_G-219" value="" style="shape=tableRow;horizontal=0;startSize=0;swimlaneHead=0;swimlaneBody=0;fillColor=none;collapsible=0;dropTarget=0;points=[[0,0.5],[1,0.5]];portConstraint=eastwest;top=0;left=0;right=0;bottom=0;rounded=1;labelBackgroundColor=none;strokeColor=#EEEEEE;fontColor=#FFFFFF;" vertex="1" parent="5Poz6dqx_JnwCEKSfS_G-209">
          <mxGeometry y="120" width="210" height="30" as="geometry" />
        </mxCell>
        <mxCell id="5Poz6dqx_JnwCEKSfS_G-220" value="" style="shape=partialRectangle;connectable=0;fillColor=none;top=0;left=0;bottom=0;right=0;editable=1;overflow=hidden;whiteSpace=wrap;html=1;rounded=1;labelBackgroundColor=none;strokeColor=#EEEEEE;fontColor=#FFFFFF;" vertex="1" parent="5Poz6dqx_JnwCEKSfS_G-219">
          <mxGeometry width="30" height="30" as="geometry">
            <mxRectangle width="30" height="30" as="alternateBounds" />
          </mxGeometry>
        </mxCell>
        <mxCell id="5Poz6dqx_JnwCEKSfS_G-221" value="break_end_time (datetime)" style="shape=partialRectangle;connectable=0;fillColor=none;top=0;left=0;bottom=0;right=0;align=left;spacingLeft=6;overflow=hidden;whiteSpace=wrap;html=1;rounded=1;labelBackgroundColor=none;strokeColor=#EEEEEE;fontColor=#FFFFFF;" vertex="1" parent="5Poz6dqx_JnwCEKSfS_G-219">
          <mxGeometry x="30" width="180" height="30" as="geometry">
            <mxRectangle width="180" height="30" as="alternateBounds" />
          </mxGeometry>
        </mxCell>
        <mxCell id="5Poz6dqx_JnwCEKSfS_G-227" value="" style="shape=tableRow;horizontal=0;startSize=0;swimlaneHead=0;swimlaneBody=0;fillColor=none;collapsible=0;dropTarget=0;points=[[0,0.5],[1,0.5]];portConstraint=eastwest;top=0;left=0;right=0;bottom=0;strokeColor=#EEEEEE;fontColor=#FFFFFF;" vertex="1" parent="5Poz6dqx_JnwCEKSfS_G-209">
          <mxGeometry y="150" width="210" height="30" as="geometry" />
        </mxCell>
        <mxCell id="5Poz6dqx_JnwCEKSfS_G-228" value="" style="shape=partialRectangle;connectable=0;fillColor=none;top=0;left=0;bottom=0;right=0;editable=1;overflow=hidden;strokeColor=#EEEEEE;fontColor=#FFFFFF;" vertex="1" parent="5Poz6dqx_JnwCEKSfS_G-227">
          <mxGeometry width="30" height="30" as="geometry">
            <mxRectangle width="30" height="30" as="alternateBounds" />
          </mxGeometry>
        </mxCell>
        <mxCell id="5Poz6dqx_JnwCEKSfS_G-229" value="break_total_time (string)" style="shape=partialRectangle;connectable=0;fillColor=none;top=0;left=0;bottom=0;right=0;align=left;spacingLeft=6;overflow=hidden;strokeColor=#EEEEEE;fontColor=#FFFFFF;" vertex="1" parent="5Poz6dqx_JnwCEKSfS_G-227">
          <mxGeometry x="30" width="180" height="30" as="geometry">
            <mxRectangle width="180" height="30" as="alternateBounds" />
          </mxGeometry>
        </mxCell>
        <mxCell id="5Poz6dqx_JnwCEKSfS_G-235" value="" style="edgeStyle=elbowEdgeStyle;fontSize=12;html=1;endArrow=ERoneToMany;rounded=0;strokeColor=#FFFFFF;" edge="1" parent="1" source="5Poz6dqx_JnwCEKSfS_G-18" target="5Poz6dqx_JnwCEKSfS_G-34">
          <mxGeometry width="100" height="100" relative="1" as="geometry">
            <mxPoint x="515" y="257" as="sourcePoint" />
            <mxPoint x="615" y="157" as="targetPoint" />
            <Array as="points">
              <mxPoint x="520" y="200" />
            </Array>
          </mxGeometry>
        </mxCell>
        <mxCell id="5Poz6dqx_JnwCEKSfS_G-236" value="" style="edgeStyle=elbowEdgeStyle;fontSize=12;html=1;endArrow=ERoneToMany;rounded=0;strokeColor=#FFFFFF;" edge="1" parent="1" source="5Poz6dqx_JnwCEKSfS_G-18" target="5Poz6dqx_JnwCEKSfS_G-213">
          <mxGeometry width="100" height="100" relative="1" as="geometry">
            <mxPoint x="515" y="249" as="sourcePoint" />
            <mxPoint x="618" y="375.74" as="targetPoint" />
          </mxGeometry>
        </mxCell>
        <mxCell id="5Poz6dqx_JnwCEKSfS_G-239" value="" style="edgeStyle=elbowEdgeStyle;fontSize=12;html=1;endArrow=ERoneToMany;rounded=0;strokeColor=#FFFFFF;exitX=1;exitY=0.5;exitDx=0;exitDy=0;" edge="1" parent="1" source="5Poz6dqx_JnwCEKSfS_G-18" target="5Poz6dqx_JnwCEKSfS_G-99">
          <mxGeometry width="100" height="100" relative="1" as="geometry">
            <mxPoint x="402" y="432" as="sourcePoint" />
            <mxPoint x="502" y="332" as="targetPoint" />
            <Array as="points">
              <mxPoint x="480" y="340" />
            </Array>
          </mxGeometry>
        </mxCell>
        <mxCell id="5Poz6dqx_JnwCEKSfS_G-240" value="" style="fontSize=12;html=1;endArrow=ERoneToMany;rounded=0;strokeColor=#FFFFFF;exitX=0;exitY=0.5;exitDx=0;exitDy=0;entryX=0;entryY=0.5;entryDx=0;entryDy=0;edgeStyle=elbowEdgeStyle;" edge="1" parent="1" source="5Poz6dqx_JnwCEKSfS_G-18" target="5Poz6dqx_JnwCEKSfS_G-112">
          <mxGeometry width="100" height="100" relative="1" as="geometry">
            <mxPoint x="528" y="532" as="sourcePoint" />
            <mxPoint x="547" y="580" as="targetPoint" />
            <Array as="points">
              <mxPoint x="190" y="480" />
            </Array>
          </mxGeometry>
        </mxCell>
        <mxCell id="5Poz6dqx_JnwCEKSfS_G-241" value="" style="edgeStyle=elbowEdgeStyle;fontSize=12;html=1;endArrow=ERmany;rounded=0;strokeColor=#FFFFFF;" edge="1" parent="1" source="5Poz6dqx_JnwCEKSfS_G-18" target="5Poz6dqx_JnwCEKSfS_G-8">
          <mxGeometry width="100" height="100" relative="1" as="geometry">
            <mxPoint x="291" y="305" as="sourcePoint" />
            <mxPoint x="272" y="502" as="targetPoint" />
            <Array as="points">
              <mxPoint x="160" y="330" />
            </Array>
          </mxGeometry>
        </mxCell>
        <mxCell id="5Poz6dqx_JnwCEKSfS_G-243" value="" style="edgeStyle=elbowEdgeStyle;fontSize=12;html=1;endArrow=ERoneToMany;rounded=0;strokeColor=#FFFFFF;" edge="1" parent="1" source="5Poz6dqx_JnwCEKSfS_G-57" target="5Poz6dqx_JnwCEKSfS_G-115">
          <mxGeometry width="100" height="100" relative="1" as="geometry">
            <mxPoint x="314" y="645" as="sourcePoint" />
            <mxPoint x="414" y="545" as="targetPoint" />
          </mxGeometry>
        </mxCell>
        <mxCell id="5Poz6dqx_JnwCEKSfS_G-244" value="" style="edgeStyle=entityRelationEdgeStyle;fontSize=12;html=1;endArrow=ERoneToMany;rounded=0;strokeColor=#FFFFFF;" edge="1" parent="1" source="5Poz6dqx_JnwCEKSfS_G-175" target="5Poz6dqx_JnwCEKSfS_G-73">
          <mxGeometry width="100" height="100" relative="1" as="geometry">
            <mxPoint x="336" y="373" as="sourcePoint" />
            <mxPoint x="436" y="273" as="targetPoint" />
          </mxGeometry>
        </mxCell>
        <mxCell id="5Poz6dqx_JnwCEKSfS_G-251" value="" style="edgeStyle=entityRelationEdgeStyle;fontSize=12;html=1;endArrow=ERoneToMany;rounded=0;strokeColor=#FFFFFF;" edge="1" parent="1" source="5Poz6dqx_JnwCEKSfS_G-18" target="5Poz6dqx_JnwCEKSfS_G-47">
          <mxGeometry width="100" height="100" relative="1" as="geometry">
            <mxPoint x="162" y="318" as="sourcePoint" />
            <mxPoint x="232" y="79" as="targetPoint" />
          </mxGeometry>
        </mxCell>
        <mxCell id="5Poz6dqx_JnwCEKSfS_G-253" value="" style="fontSize=12;html=1;endArrow=ERoneToMany;rounded=0;strokeColor=#FFFFFF;edgeStyle=elbowEdgeStyle;elbow=vertical;entryX=0;entryY=0.5;entryDx=0;entryDy=0;exitX=0;exitY=0.5;exitDx=0;exitDy=0;" edge="1" parent="1" source="5Poz6dqx_JnwCEKSfS_G-5" target="5Poz6dqx_JnwCEKSfS_G-73">
          <mxGeometry width="100" height="100" relative="1" as="geometry">
            <mxPoint x="-150" y="358" as="sourcePoint" />
            <mxPoint x="-150" y="260" as="targetPoint" />
            <Array as="points">
              <mxPoint x="-160" y="310" />
            </Array>
          </mxGeometry>
        </mxCell>
        <mxCell id="5Poz6dqx_JnwCEKSfS_G-254" value="" style="edgeStyle=elbowEdgeStyle;fontSize=12;html=1;endArrow=ERoneToMany;rounded=0;strokeColor=#FFFFFF;" edge="1" parent="1" source="5Poz6dqx_JnwCEKSfS_G-5" target="5Poz6dqx_JnwCEKSfS_G-50">
          <mxGeometry width="100" height="100" relative="1" as="geometry">
            <mxPoint x="219" y="377" as="sourcePoint" />
            <mxPoint x="308" y="175" as="targetPoint" />
          </mxGeometry>
        </mxCell>
        <mxCell id="5Poz6dqx_JnwCEKSfS_G-256" value="" style="edgeStyle=elbowEdgeStyle;fontSize=12;html=1;endArrow=ERmandOne;startArrow=ERmandOne;rounded=0;strokeColor=#FFFFFF;entryX=0;entryY=0.5;entryDx=0;entryDy=0;exitX=0;exitY=0.5;exitDx=0;exitDy=0;" edge="1" parent="1" source="5Poz6dqx_JnwCEKSfS_G-60" target="5Poz6dqx_JnwCEKSfS_G-5">
          <mxGeometry width="100" height="100" relative="1" as="geometry">
            <mxPoint x="-160" y="730" as="sourcePoint" />
            <mxPoint x="-190" y="380" as="targetPoint" />
            <Array as="points">
              <mxPoint x="-180" y="540" />
            </Array>
          </mxGeometry>
        </mxCell>
      </root>
    </mxGraphModel>
  </diagram>
</mxfile>
